<svg width="205" height="191" viewBox="0 0 205 191" fill="none" xmlns="http://www.w3.org/2000/svg">
<rect width="205" height="191" fill="white"/>
<rect x="49.5" y="45.5" width="106" height="100" rx="15.5" fill="#131261"/>
<rect x="49.5" y="45.5" width="106" height="100" rx="15.5" stroke="white"/>
<path d="M82 95.7929H96.4042C96.7846 95.7929 96.9958 96.2332 96.7576 96.5298L81.2202 115.883C81.0777 116.061 81 116.282 81 116.509V119C81 119.552 81.4477 120 82 120H105.004H115.439C115.991 120 116.439 119.552 116.439 119V114.332V86.475V81.8487C116.439 81.6304 116.674 81.493 116.864 81.6L124.661 85.6C125.203 85.9707 125.867 85.3405 125.526 84.7798L123.102 80.8L119.203 75.2L115.384 69.3209C114.984 68.7063 114.081 68.7158 113.695 69.3386L109.068 76.8L104.39 84.8C104.008 85.5061 104.839 86.2455 105.496 85.7836L111.363 81.6566C111.416 81.6191 111.475 81.5909 111.538 81.573C111.91 81.4666 112.281 81.7461 112.281 82.1333V99.3471V115.062C112.281 115.614 111.833 116.062 111.281 116.062H102.623H90.1584C89.3388 116.062 88.8672 115.13 89.3527 114.469L97.3493 103.59L104.819 93.0751C104.94 92.9059 105.004 92.7035 105.004 92.496V90.9332C105.004 90.3809 104.556 89.9332 104.004 89.9332H82C81.4477 89.9332 81 90.3809 81 90.9332V92.815V94.7929C81 95.3452 81.4477 95.7929 82 95.7929Z" fill="url(#paint0_linear_1025_20184)" stroke="#F1F1F1" stroke-width="0.56"/>
<defs>
<linearGradient id="paint0_linear_1025_20184" x1="104" y1="68" x2="104" y2="120" gradientUnits="userSpaceOnUse">
<stop stop-color="#00F2FF"/>
<stop offset="0.5" stop-color="#2885FC"/>
<stop offset="1" stop-color="#8661F4"/>
</linearGradient>
</defs>
</svg>
